<?xml version="1.0" encoding="utf-8"?>
<!-- Generator: Adobe Illustrator 27.1.1, SVG Export Plug-In . SVG Version: 6.00 Build 0)  -->
<svg version="1.1" id="Layer_1" xmlns="http://www.w3.org/2000/svg" xmlns:xlink="http://www.w3.org/1999/xlink" x="0px" y="0px"
	 viewBox="0 0 628.2 198.3" style="enable-background:new 0 0 628.2 198.3;" xml:space="preserve">
<style type="text/css">
	.st0{fill:#8858E6;}
	.st1{fill:url(#SVGID_1_);}
	.st2{fill:#FFFFFF;}
	.st3{fill:url(#SVGID_00000162331521397348773640000007925155505993666457_);}
	.st4{fill:#774DDB;}
</style>
<g>
	<g>
		<g>
			<path d="M44.2,102.9l0.1-67.6H26.8v81.5h51.4v-13.9H44.2z"/>
			<path d="M91.4,52.8v64h16.4v-64H91.4z"/>
			<path d="M177.7,60.3c-3.8-5.6-10.1-8.4-18.8-8.4c-10.6,0-17.8,3.5-21.7,10.3l-0.7-9.4h-15.7v64h16.4v-32c0-5.8,1.4-10.5,4.2-13.9
				c2.8-3.4,6.8-5.2,11.9-5.2c4.9,0,8.4,1.6,10.5,4.8c2.2,3.2,3.2,8,3.2,14.2v32h16.3v-32C183.4,74.1,181.5,65.9,177.7,60.3z"/>
			<path d="M240.7,52.8v32c0,5.8-1.4,10.4-4.2,13.9c-2.8,3.5-6.8,5.2-12,5.2c-4.8,0-8.4-1.6-10.5-4.8c-2.2-3.2-3.2-8-3.2-14.2v-32
				h-16.3v32c0,10.7,1.9,18.9,5.7,24.5c3.8,5.6,10.1,8.4,18.8,8.4c10.6,0,17.8-3.4,21.7-10.3l0.7,9.4H257v-64H240.7z"/>
			<path d="M334.2,52.8h-18.3l-15.7,22.6l-15.7-22.6h-18.4l22.1,32l-22.1,32h18.4l15.7-22.6l15.7,22.6h18.3l-22.1-32L334.2,52.8z"/>
			<path class="st0" d="M443.9,70.6l-7.8-7.8v54.1h16.4V61.9L443.9,70.6z"/>
			<path class="st0" d="M512.9,52.8l-17,49.7l-17-49.7h-17.5l22.5,64h23.8l22.6-64H512.9z"/>
			<path class="st0" d="M599.9,74.1c-1.6-4.8-3.9-8.8-7-12.1c-3.1-3.2-6.8-5.8-11.1-7.5c-4.3-1.8-9.1-2.7-14.1-2.7
				c-6.3,0-12,1.3-17.3,3.9c-5.2,2.6-9.4,6.5-12.6,11.5c-3.2,5.1-4.8,10.9-4.8,17.5c0,6.6,1.6,12.4,4.8,17.5
				c3.2,5.1,7.4,8.9,12.6,11.5c5.2,2.6,11,3.9,17.3,3.9c6.6,0,12.6-1.5,18.2-4.6c5.5-3,9.7-7.2,12.6-12.6l-14-6.7
				c-1.6,3.4-3.8,6.1-6.7,8c-2.9,1.9-6.2,2.9-10,2.9c-4.3,0-8.1-1.3-11.4-4c-3.3-2.7-5.4-6.3-6.4-10.8h51.8
				C602.1,84.2,601.5,78.9,599.9,74.1z M550,79.7c0.9-4.5,2.9-8.2,6.1-10.8c3.2-2.7,7.1-4,11.6-4c4.6,0,8.5,1.3,11.7,4
				c3.2,2.7,5.2,6.3,6.2,10.8H550z"/>
		</g>
		<path class="st0" d="M387.1,34.8h-33.3v82.9h33.3c22.9,0,41.5-18.6,41.5-41.5C428.6,53.4,410,34.8,387.1,34.8z M387.1,101h-16.6
			V51.5h16.6c6.8,0,13,2.8,17.5,7.3c4.5,4.5,7.3,10.7,7.3,17.5C411.9,89.9,400.8,101,387.1,101z"/>
		<rect x="436.1" y="24.6" class="st0" width="16.1" height="20.4"/>
		<rect x="91.2" y="24.6" width="16.1" height="16.1"/>
		<polygon class="st0" points="443.9,62.1 461.9,43.9 425.8,43.9 		"/>
	</g>
	<linearGradient id="SVGID_1_" gradientUnits="userSpaceOnUse" x1="26.3146" y1="151.3639" x2="600.8765" y2="151.3639">
		<stop  offset="0" style="stop-color:#000000"/>
		<stop  offset="1" style="stop-color:#8858E6"/>
	</linearGradient>
	<path class="st1" d="M26.3,134.4c0,0,140.3,47.2,379.1,7.7c114-18.9,169.1-14.4,195.4-4.6c-7.9-0.8-19.8-1.9-34.3-2.6
		C465.1,130,426.9,153.5,331,166.7C190.6,186,98.7,159.6,78.5,153.5C56.1,146.7,38.2,139.5,26.3,134.4z"/>
</g>
</svg>
